<?xml version="1.0" encoding="utf-8"?>
<!-- Generator: Adobe Illustrator 16.0.0, SVG Export Plug-In . SVG Version: 6.00 Build 0)  -->
<!DOCTYPE svg PUBLIC "-//W3C//DTD SVG 1.1//EN" "http://www.w3.org/Graphics/SVG/1.1/DTD/svg11.dtd">
<svg version="1.1" id="Calque_1" xmlns="http://www.w3.org/2000/svg" xmlns:xlink="http://www.w3.org/1999/xlink" x="0px" y="0px"
	 width="128px" height="128px" viewBox="0 0 128 128" enable-background="new 0 0 128 128" xml:space="preserve">
<g>
	<path id="path1" fill="#FFFFFF" d="M48.59,107.459l3.545,10.297l54.915-18.908l-3.545-10.297L48.59,107.459z M44.848,12.691
		c-6.819,2.349-11.86,8.234-13.151,15.354c-0.322,1.774-1.891,3.051-3.708,2.978c-2.501-0.091-4.938,0.265-7.245,1.059
		C10.32,35.671,4.762,47.067,8.35,57.491c3.375,9.802,13.877,15.438,23.907,12.826c1.835-0.479,3.729,0.538,4.346,2.33l9.624,27.948
		l54.914-18.908l-9.623-27.948c-0.617-1.791,0.249-3.759,1.989-4.512c9.513-4.116,14.318-15.023,10.943-24.826
		c-3.589-10.423-14.985-15.981-25.408-12.393c-3.159,1.087-6.011,2.96-8.249,5.413c-0.669,0.733-1.61,1.165-2.605,1.185
		c-0.994,0.02-1.948-0.365-2.652-1.071C60.07,12.034,52.145,10.179,44.848,12.691z M42.484,5.827
		c8.817-3.037,18.303-1.4,25.53,4.223c2.549-2.145,5.496-3.815,8.663-4.906c14.207-4.891,29.745,2.688,34.636,16.894
		c4.231,12.287-0.963,25.842-11.905,32.317l9.779,28.401l5.908,17.159c0.652,1.896-0.355,3.962-2.25,4.615l-61.779,21.271
		c-1.894,0.652-3.961-0.355-4.613-2.25l-5.909-17.161l-9.779-28.4c-12.609,1.635-25.048-5.85-29.279-18.136
		c-4.892-14.205,2.688-29.745,16.893-34.637c2.218-0.763,4.52-1.234,6.871-1.398C27.748,15.455,34.137,8.701,42.484,5.827z"/>
</g>
</svg>
